<svg height="725" viewBox="0 0 1311 725" width="1311" xmlns="http://www.w3.org/2000/svg"><g fill="#dff1fd"><path d="m1218.479-639.507c-890.579 246.694-935.146-288.344-815.491-458.48s386.73-102.58 512.628-78.136 302.863-44.427 302.863-44.427 154.163-80.559 253.723-68.874 174.053 65.966 187.559 174.233c15.969 128.01-105.169 383.472-441.282 475.684z" transform="translate(-350.141 1300.582)"/><path d="m76.527 127.472c1.464 5.046 6.787 10.349 11.833 11.813l3.4.99c5.046 1.444 5.046 3.839 0 5.283l-3.4.99c-5.046 1.464-10.369 6.767-11.833 11.813l-.989 3.423c-1.444 5.046-3.839 5.046-5.283 0l-.989-3.423c-1.445-5.046-6.767-10.349-11.813-11.813l-3.423-.99c-5.046-1.444-5.046-3.839 0-5.283l3.423-.99c5.046-1.464 10.369-6.767 11.813-11.813l.989-3.423c1.444-5.046 3.839-5.046 5.283 0z" transform="translate(-50.244 -5.021)"/><path d="m100.341 130.024c2.988 10.29 13.832 21.153 24.121 24.121l6.985 2c10.29 2.988 10.29 7.856 0 10.824l-6.985 2c-10.29 2.968-21.133 13.832-24.121 24.121l-2 6.965c-2.968 10.309-7.836 10.309-10.8 0l-2.018-6.965c-2.971-10.29-13.835-21.156-24.123-24.124l-6.965-2c-10.29-2.968-10.29-7.836 0-10.824l6.965-2c10.29-2.968 21.153-13.832 24.121-24.121l2.018-6.965c2.968-10.309 7.836-10.309 10.8 0z" transform="translate(-13.409 -92.541)"/><path d="m650.563 589.035a10 10 0 0 1 -2.584-19.664 29.847 29.847 0 1 0 -36.558-21.1 10 10 0 1 1 -19.32 5.18 49.85 49.85 0 1 1 61.058 35.24 9.993 9.993 0 0 1 -2.596.344z" transform="translate(42.499 -490.67)"/></g></svg>